<svg xmlns="http://www.w3.org/2000/svg" viewBox="4 4 65 65">
  <rect x="4" y="4" width="100%" height="100%" rx="10%" fill="#ddd" />

  <path fill="#44F" d="m18 54-6.7-1s-1 0-1-1.3l-.1-3.6s.7-9.4 2.6-10.6c1.6-1 46.5-.7 53.1-.6.5 0 .9.4 1 .9.2 1.3.7 4 .7 6.3l-.1 8-4.8 1.8"/>
  <path fill="#333" d="M13.1 38s-2.3 3.3-2 9.1c0 0 3.8 1.5 9.9-4.3l43 1.3s2.2-1.2 2.3-6.3c0 0-46-2.1-53.2.3z"/>
  <circle cx="56.5" cy="53.3" r="3" fill="#ddd"/>
  <circle cx="24" cy="53.3" r="3" fill="#ddd"/>
  <path fill="#333" d="M40.5 40.3h5.1V53h-5.1z"/>
  <path fill="#FF2" d="M11.2 50.7h2.5l1.1-2.4H12c-.4 0-.7.4-.7 1v1.4z"/>
  <text x="12" y="30" font-style="italic" font-size="25" font-family="Comic Sans MS">RBF</text>

  <g fill="none" stroke="#000" stroke-linecap="round" stroke-linejoin="round" stroke-width="2">
    <path d="M18 53h-6.7s-1 0-1-1.3l-.1-3.6s.7-9.4 2.6-10.6c1.6-1 46.5-.7 53.1-.6.5 0 .9.4 1 .9.2 1.3.7 4 .7 6.3l-.1 8-4.8.8"/>
    <path d="M50.3 53.1 30.2 53"/>
    <path d="m11.3 40.5-4.6.3-1.4 3.3"/>
    <circle cx="56.5" cy="53.3" r="3"/>
    <circle cx="24" cy="53.3" r="3"/>
    <path d="M13.3 46.3s4-1 7.7-3.5l19.5.2"/>
    <path d="M18 53h-6.7s-1 0-1-1.3l-.1-3.6s.7-9.4 2.6-10.6c1.6-1 46.5-.7 53.1-.6.5 0 .9.4 1 .9.2 1.3.7 4 .7 6.3l-.1 8"/>
    <path d="M40.5 40.3h5.1V53h-5.1z"/>
    <path d="M11.2 50.7h2.5l1.1-1.4"/>
  </g>
</svg>